# xmcd
# 
# Track frame offsets:
#     150
#     13425
#     40242
#     53425
#     66322
#     77315
#     87357
#     102237
#     121460
#     132897
#     154830
#     168900
# 
# Disc length: 2527
# 
# Revision: 0
# Processed by: cddbd v1.5.2PL0 Copyright (c) Steve Scherf et al.
# Submitted via: BonkEnc v1.0.8
# 
DISCID=9409dd0c
DTITLE=憂歌団 - 憂歌団
DYEAR=89
DGENRE=Blues
TTITLE0=嫌んなった
TTITLE1=シカゴ・バウンド
TTITLE2=ちょいとそこ行くネエチャン
TTITLE3=キイ・トゥ・ザ・ハイウェイ
TTITLE4=ドツボ節
TTITLE5=シャッ・シャッ・シャッ
TTITLE6=おそうじオバチャン
TTITLE7=ひとり暮し
TTITLE8=カインド・ハーテッド・ウーマン
TTITLE9=ジェリー・ロール・ベイカー・ブルース
TTITLE10=はんか街のはんぱ女
TTITLE11=グッバイ・ベイビー
EXTD=
EXTT0=
EXTT1=
EXTT2=
EXTT3=
EXTT4=
EXTT5=
EXTT6=
EXTT7=
EXTT8=
EXTT9=
EXTT10=
EXTT11=
PLAYORDER=
